<svg width="24" height="24" viewBox="0 0 24 24" fill="none" xmlns="http://www.w3.org/2000/svg">
  <path d="M18 16.5V12C18 8.69 15.31 6 12 6C8.69 6 6 8.69 6 12V16.5L4.1 18.4C3.68 18.82 4.01 19.5 4.5 19.5H19.5C20 19.5 20.32 18.82 19.9 18.4L18 16.5ZM12 20C13.1 20 14 19.1 14 18H10C10 19.1 10.9 20 12 20ZM18 12V16H6V12C6 9.79 7.79 8 10 8C12.21 8 14 9.79 14 12H16C16 9.79 17.79 8 20 8C22.21 8 24 9.79 24 12V16H18V12Z" stroke="currentColor" stroke-width="2" stroke-linecap="round" stroke-linejoin="round"/>
</svg>
